<svg version="1.0" xmlns="http://www.w3.org/2000/svg"
 width="275.000000pt" height="315.000000pt" viewBox="0 0 275.000000 315.000000"
 preserveAspectRatio="xMidYMid meet">

<g transform="translate(0.000000,315.000000) scale(0.100000,-0.100000)"
fill="#3A8C96" stroke="none">
<path d="M1259 2683 c-421 -422 -429 -433 -452 -566 -13 -80 -1 -158 39 -243
23 -49 73 -105 305 -339 295 -298 299 -304 299 -400 -1 -64 -31 -114 -134
-215 l-96 -95 -321 320 c-176 176 -342 349 -370 385 -201 265 -234 624 -84
920 47 94 84 140 224 283 75 76 138 142 139 148 2 6 -131 8 -355 7 l-358 -3 0
-1285 0 -1285 330 -5 330 -5 5 -102 5 -103 389 387 c214 213 404 411 422 439
75 117 84 262 24 392 -29 63 -56 93 -291 328 -143 143 -272 279 -287 304 -21
36 -26 57 -26 105 0 81 23 120 134 230 l91 90 352 -355 c381 -383 408 -416
466 -576 42 -114 55 -214 48 -354 -8 -164 -57 -307 -151 -445 -12 -16 -75 -85
-141 -153 -66 -67 -121 -127 -123 -132 -6 -17 32 -11 122 20 194 65 352 165
501 315 250 250 375 553 375 906 0 347 -123 649 -368 903 -151 157 -385 292
-599 346 l-43 11 0 104 c0 58 -3 105 -8 105 -4 0 -181 -174 -393 -387z"/>
</g>
</svg>
